
<svg id="svg" xmlns="http://www.w3.org/2000/svg" xmlns:xlink="http://www.w3.org/1999/xlink" width="50" height="50" viewBox="0, 0, 400,400"><g id="svgg"><path id="path0" d="M141.948 22.984 C -16.943 79.597,-28.951 297.237,122.850 369.140 C 163.728 388.503,236.272 388.503,277.150 369.140 C 418.665 302.109,420.632 102.126,280.457 32.848 C 243.213 14.440,178.801 9.854,141.948 22.984 M268.613 49.580 C 360.947 94.453,392.666 204.428,337.956 290.000 C 324.863 310.479,308.100 328.098,307.873 321.620 C 307.297 305.249,297.589 303.523,265.909 314.158 C 222.751 328.645,177.249 328.645,134.091 314.158 C 102.411 303.523,92.703 305.249,92.127 321.620 C 91.900 328.084,75.151 310.500,62.009 290.000 C -25.908 152.865,123.467 -20.959,268.613 49.580 M107.003 95.000 C 92.610 110.087,87.512 125.535,88.277 151.750 C 88.691 165.983,85.923 181.927,80.593 196.000 C 52.343 270.592,93.620 310.000,200.000 310.000 C 306.386 310.000,347.683 270.567,319.392 196.000 C 314.143 182.165,311.299 166.091,311.730 152.688 C 312.608 125.350,306.816 108.195,291.875 93.880 L 279.934 82.440 264.234 97.772 L 248.533 113.103 200.000 113.103 L 151.467 113.103 136.565 98.552 C 118.732 81.138,120.073 81.300,107.003 95.000 M175.200 192.800 C 177.840 195.440,180.000 202.280,180.000 208.000 C 180.000 213.720,177.840 220.560,175.200 223.200 C 162.612 235.788,140.000 226.024,140.000 208.000 C 140.000 202.280,142.160 195.440,144.800 192.800 C 147.440 190.160,154.280 188.000,160.000 188.000 C 165.720 188.000,172.560 190.160,175.200 192.800 M255.200 192.800 C 257.840 195.440,260.000 202.280,260.000 208.000 C 260.000 213.720,257.840 220.560,255.200 223.200 C 242.612 235.788,220.000 226.024,220.000 208.000 C 220.000 202.280,222.160 195.440,224.800 192.800 C 227.440 190.160,234.280 188.000,240.000 188.000 C 245.720 188.000,252.560 190.160,255.200 192.800 M208.889 256.889 L 200.000 265.778 191.111 256.889 L 182.222 248.000 200.000 248.000 L 217.778 248.000 208.889 256.889 " stroke="none" fill="#000000" fill-rule="evenodd"></path></g></svg>