<svg width="101" height="100" viewBox="0 0 101 100" fill="none" xmlns="http://www.w3.org/2000/svg">
<circle cx="50.5" cy="50" r="50" fill="#EBFAF6"/>
<path d="M50.5336 76C53.2852 76 55.5 73.8086 55.5 71.1523C55.5 68.4961 53.2852 66.1719 50.5336 66.1719C47.7148 66.1719 45.5 68.4961 45.5 71.1523C45.5 73.8086 47.7148 76 50.5336 76ZM50.5336 25C47.7148 25 45.9027 26.6602 45.9027 29.8477C45.9027 32.9023 46.7081 38.8789 48.1846 48.9062L49.3926 59.3984H51.5403L52.7483 48.9062C54.2248 38.8789 55.0302 32.9023 55.0302 29.8477C55.0302 26.6602 53.2852 25 50.5336 25Z" fill="white"/>
</svg>
