<svg width="160" height="130" viewBox="0 0 160 130" fill="none" xmlns="http://www.w3.org/2000/svg">
<path d="M118.273 118.04C112.245 119.178 106.049 119.086 100.058 117.77C95.8153 116.72 91.4023 116.553 87.0926 117.28C82.7828 118.006 78.6682 119.61 75.0042 121.992C58.6487 131.803 41.75 132.325 24.9558 123.167C19.4108 120.17 14.5206 116.095 10.5721 111.183C6.62357 106.27 3.69625 100.619 1.96196 94.5598C-0.922754 85.3152 0.226924 76.8994 6.2431 69.2764C8.6529 66.2229 11.1985 63.2643 13.8428 60.4111C17.4221 56.6984 19.6318 51.8792 20.1086 46.7452C21.895 28.1506 32.0129 15.4718 48.6286 7.82763C62.6062 1.10162 78.4373 -0.739224 93.5849 2.60009C107.709 5.7518 118.387 13.7625 124.771 26.8697C127.265 32.2946 131.563 36.687 136.934 39.2983C140.703 41.225 144.354 43.3744 147.868 45.735C151.004 47.7786 153.617 50.5285 155.497 53.7641C157.378 56.9997 158.474 60.631 158.697 64.3666C160.126 76.6518 156.753 89.0146 149.282 98.8738C141.832 109.051 130.709 115.926 118.273 118.04Z" fill="#C9F0E7"/>
<path fill-rule="evenodd" clip-rule="evenodd" d="M34.6033 127.173C31.9213 123.777 30.3641 119.799 29.5711 115.467C27.6506 104.896 32.7613 95.4146 38.6828 86.5653C39.7635 85.4126 40.7654 84.3255 41.7531 83.2537L41.7536 83.2532C46.1851 78.445 50.3329 73.9445 60.038 65.2045C60.9983 64.9242 61.4784 64.4437 61.7985 63.5228C64.3662 56.3597 67.3581 49.8125 70.3506 43.2639L70.3507 43.2637C73.2801 36.8532 76.2101 30.4414 78.7434 23.4493C78.8235 23.2491 78.9035 23.0489 78.9835 22.8086C79.5036 21.5673 80.4239 20.9266 81.6242 21.0067C82.7444 21.0467 83.6647 21.7275 84.0248 22.9688C84.5849 24.8107 85.105 26.6527 85.6252 28.4947C85.7052 28.6949 85.7852 28.8951 85.9052 29.2955C86.1714 29.006 86.4308 28.7266 86.6845 28.4533L86.6861 28.4516C87.3091 27.7805 87.8976 27.1466 88.4659 26.4925C89.3061 25.5315 90.3064 24.9309 91.5867 25.3313C92.867 25.7317 93.3871 26.7728 93.4671 28.0542L93.4672 28.0547C93.6272 30.0567 93.7872 32.0586 94.0273 34.0205C94.0673 34.3809 94.4274 34.9015 94.7475 35.0216C98.0283 36.2629 100.149 38.5453 101.149 41.9089C101.269 42.2693 101.709 42.6697 102.069 42.8299C103.729 43.5105 105.39 44.1811 107.05 44.8517L107.051 44.8521C108.711 45.5228 110.371 46.1935 112.032 46.8742C114.632 47.9153 115.073 49.3568 113.672 51.7994C110.912 56.6446 106.991 60.0882 101.669 61.77C100.349 62.2105 98.9485 62.4507 97.5482 62.5708C96.5873 62.6557 95.6263 62.6407 94.5949 62.6245C94.1662 62.6178 93.7253 62.6109 93.2671 62.6109V63.7321C93.2671 77.6669 93.2671 91.6417 93.3071 105.577C93.3071 106.177 93.5072 106.818 93.7872 107.338C95.9011 110.774 98.023 114.201 100.146 117.628C95.9723 116.627 91.6386 116.478 87.4046 117.192C86.2828 117.381 85.1742 117.629 84.0833 117.936C82.5182 115.535 80.953 113.137 79.3836 110.742C79.2125 110.485 78.9804 110.269 78.7453 110.05L78.7452 110.05C78.6505 109.962 78.5553 109.873 78.4634 109.781C78.4034 109.821 78.3533 109.851 78.3033 109.881C78.2533 109.911 78.2033 109.941 78.1433 109.981C78.4634 113.865 77.7032 117.509 75.9827 120.913C76.181 120.988 76.3768 121.06 76.5706 121.129C76.147 121.378 75.7288 121.636 75.3163 121.904C61.9891 129.899 48.3013 131.725 34.6033 127.173ZM85.1125 58.3512H81.1359C81.147 57.3279 81.2302 56.4507 81.3855 55.7198C81.5519 54.9888 81.8236 54.3309 82.2008 53.7462C82.5779 53.1502 83.0881 52.5429 83.7315 51.9244C84.2417 51.4408 84.6965 50.9854 85.0958 50.5581C85.5062 50.1195 85.8279 49.664 86.0608 49.1917C86.2938 48.7082 86.4102 48.1628 86.4102 47.5555C86.4102 46.8695 86.2993 46.296 86.0775 45.8349C85.8667 45.3739 85.5506 45.0253 85.1291 44.7891C84.7187 44.5417 84.2029 44.418 83.5817 44.418C83.0715 44.418 82.589 44.5248 82.1342 44.7385C81.6794 44.9522 81.3134 45.2839 81.0361 45.7337C80.7588 46.1723 80.609 46.7458 80.5869 47.4543H76.1777C76.211 45.9811 76.5548 44.7554 77.2093 43.777C77.8637 42.7874 78.7456 42.0508 79.8548 41.5673C80.964 41.0725 82.2063 40.8251 83.5817 40.8251C85.1014 40.8251 86.3992 41.0837 87.4751 41.601C88.5621 42.1071 89.3885 42.8493 89.9542 43.8276C90.531 44.806 90.8194 45.9868 90.8194 47.37C90.8194 48.3596 90.6308 49.248 90.2537 50.0352C89.8766 50.8111 89.3774 51.5364 88.7562 52.2112C88.1351 52.8859 87.464 53.5662 86.743 54.2522C86.1108 54.8257 85.6837 55.4386 85.4619 56.0909C85.24 56.7431 85.1236 57.4966 85.1125 58.3512ZM80.72 63.5973C80.72 62.9225 80.9418 62.3603 81.3855 61.9104C81.8403 61.4606 82.4503 61.2357 83.2157 61.2357C83.9811 61.2357 84.5856 61.4606 85.0293 61.9104C85.4841 62.3603 85.7114 62.9225 85.7114 63.5973C85.7114 64.2495 85.4841 64.8005 85.0293 65.2504C84.5856 65.7002 83.9811 65.9251 83.2157 65.9251C82.4503 65.9251 81.8403 65.7002 81.3855 65.2504C80.9418 64.8005 80.72 64.2495 80.72 63.5973Z" fill="white" fill-opacity="0.5"/>
</svg>
