<svg width="18" height="16" viewBox="0 0 18 16" fill="none" xmlns="http://www.w3.org/2000/svg">
<path fill-rule="evenodd" clip-rule="evenodd" d="M0.193631 1.31684L6.5459 8.66103V13.6004C6.54598 13.7489 6.58835 13.8945 6.66826 14.0208C6.74817 14.1471 6.86247 14.2492 6.99835 14.3156L10.271 15.9156C10.3957 15.9766 10.5343 16.0053 10.6736 15.9992C10.8128 15.9931 10.9482 15.9522 11.0668 15.8806C11.1854 15.8089 11.2833 15.7088 11.3512 15.5898C11.4191 15.4708 11.4548 15.3367 11.4549 15.2004V8.66103L17.8064 1.31684C17.9072 1.20039 17.9718 1.05819 17.9927 0.907011C18.0135 0.75583 17.9897 0.601968 17.9241 0.463564C17.8585 0.32516 17.7538 0.207984 17.6223 0.125851C17.4909 0.043718 17.3381 5.16405e-05 17.1821 1.75784e-07H0.818712C0.662631 -0.000100977 0.509777 0.0434547 0.378186 0.125528C0.246595 0.207601 0.141758 0.324767 0.076046 0.463201C0.0103336 0.601635 -0.0135121 0.755559 0.00732246 0.906812C0.028157 1.05807 0.0928024 1.20034 0.193631 1.31684ZM2.58269 1.60004H15.419L10.0117 7.85141C9.88684 7.99594 9.81843 8.17905 9.81858 8.36822V13.906L8.18224 13.1059V8.36822C8.18216 8.17895 8.11346 7.99583 7.98833 7.85141L2.58187 1.60004H2.58269Z" fill="#000000"/>
</svg>
