<svg width="130" height="130" viewBox="0 0 130 130" fill="none" xmlns="http://www.w3.org/2000/svg">
<rect width="130" height="130" fill="#C9F0E7"/>
<path d="M108.095 87.5829C107.878 88.5985 107.708 89.5277 107.49 90.4785C107.007 92.7043 105.579 94.5194 104.175 96.3346C104.127 96.3778 104.079 96.421 104.054 96.4859C103.425 97.8256 102.119 97.696 100.86 97.6312C100.352 97.5879 100.159 97.1125 100.57 96.7668C101.998 95.5567 102.119 93.9144 102.53 92.3801C102.748 91.6022 102.699 90.8026 102.24 90.0679C101.272 88.4905 100.304 86.913 99.3117 85.3571C99.215 85.2059 98.9004 85.0978 98.731 85.1194C96.2629 85.4436 93.8189 85.8541 91.3508 86.0918C89.2456 86.3079 87.1163 86.3295 84.9869 86.3944C84.1158 86.416 83.9706 86.5024 84.1642 87.2804C84.7933 89.9599 85.1321 92.6394 84.6239 95.3622C84.5997 95.4702 84.5997 95.5567 84.5513 95.6647C84.0674 97.5447 83.9948 97.6095 81.8654 97.6312C81.3089 97.6312 80.7282 97.6312 80.1232 97.6312C79.978 96.9829 80.5104 96.702 80.8733 96.3346C81.0427 96.1833 81.2121 95.924 81.1637 95.7512C80.6798 93.2445 79.8087 90.8891 77.9213 88.901C77.8729 88.8362 77.8003 88.7714 77.7277 88.7282C77.7035 88.7066 77.6551 88.7066 77.6551 88.7066C77.2195 89.9167 76.905 91.1916 76.3 92.3369C75.4047 94.0008 74.2917 95.5783 73.2754 97.199C73.0334 97.5663 72.7188 97.6744 72.2591 97.6528C71.6299 97.6312 70.9766 97.6312 70.3475 97.6528C69.7425 97.6744 69.5732 97.3935 69.7425 96.9829C69.8877 96.6371 70.1055 96.2482 70.4201 96.0321C71.0008 95.6431 71.3154 95.1461 71.4364 94.5627C71.7751 92.8555 72.1623 91.1484 72.3801 89.4413C72.5978 87.5613 72.622 85.6381 72.7914 83.7581C72.864 82.9153 72.6946 82.159 72.2349 81.4675C70.5411 78.9608 68.3149 77.0376 65.0483 76.2381C64.2255 76.0436 63.4028 75.6762 62.7495 75.2224C61.4187 74.2932 61.3945 72.9535 62.6043 71.8946C63.1367 71.4192 63.4512 70.9006 63.548 70.2091C63.8142 68.6532 64.9031 67.5728 66.3791 66.7732C66.7421 66.5787 66.9115 66.3627 67.0082 65.9953C67.1776 65.2822 67.3712 64.5691 67.6858 63.8776C68.1455 62.8836 69.1134 62.7323 69.8877 63.5319C70.7104 64.353 71.5332 65.1958 72.1139 66.1682C73.9045 69.1286 76.8324 70.49 80.341 71.1167C83.2931 71.6569 86.2936 71.6569 89.294 71.3976C93.8189 71.0302 98.3438 70.5332 102.869 70.1875C105.434 69.993 108.023 70.0362 110.588 70.49C111.289 70.6197 112.136 70.5981 112.79 70.382C116.879 68.9341 119.831 66.4491 121.065 62.6243C121.356 61.7167 121.259 60.6794 121.259 59.707C121.259 58.0215 121.114 56.3144 121.21 54.6289C121.356 52.0574 124.09 49.4859 126.727 49.2698C127.986 49.1617 128.978 49.6371 129.365 50.5231C129.8 51.5387 129.462 52.4463 128.373 53.1162C127.865 53.4404 127.332 53.7213 126.8 53.9806C125.469 54.5856 124.913 55.6229 124.913 56.8978C124.888 58.216 124.913 59.5558 125.058 60.8739C125.469 64.7852 123.775 68.0049 120.823 70.7277C119.347 72.0891 117.653 73.2344 115.984 74.4229C115.33 74.8983 114.967 75.3521 115.137 76.13C115.693 78.7879 115.5 81.4459 115.113 84.1038C114.943 85.3571 115.258 86.7185 115.621 87.9502C116.081 89.5493 116.105 91.0836 115.427 92.5746C114.725 94.1089 113.903 95.5783 113.128 97.0693C112.886 97.5447 112.451 97.7392 111.846 97.696C111.386 97.6528 110.926 97.696 110.467 97.6744C109.886 97.6528 109.547 97.1558 109.934 96.81C111.12 95.7512 110.926 94.3249 111.289 93.0716C111.459 92.4882 111.556 91.8399 111.435 91.2564C111.314 90.673 110.999 90.0247 110.564 89.5925C109.813 88.8146 108.942 88.2528 108.095 87.5829ZM65.7016 71.0518C65.7258 71.0086 65.75 70.987 65.7742 70.9438C65.8468 70.9438 65.9194 70.9438 65.9678 70.9438C66.4275 70.9438 66.7663 70.7277 66.6937 70.3387C66.6695 70.1443 66.1613 69.7985 66.0887 69.8417C65.6774 70.0578 65.3386 70.3604 64.9757 70.6413C65.2176 70.7709 65.4596 70.9222 65.7016 71.0518Z" fill="white" fill-opacity="0.5"/>
<path fill-rule="evenodd" clip-rule="evenodd" d="M13.4006 100.005C13.7329 100.065 14.065 100.125 14.395 100.189H14.3984C25.4364 100.189 36.4744 100.189 47.438 100.263C48.7279 99.6223 48.6783 98.5128 48.4799 97.3786C48.0085 94.8391 46.3713 93.3104 44.1138 92.2995C43.6916 92.1058 43.2587 91.9544 42.8083 91.7968C42.5707 91.7137 42.3281 91.6289 42.0796 91.5352C43.1463 89.4395 43.6177 87.1958 43.4192 84.8042C43.4564 84.7795 43.4874 84.761 43.5185 84.7425C43.5495 84.724 43.5805 84.7056 43.6177 84.6809C43.6747 84.7375 43.7337 84.7922 43.7925 84.8465C43.9382 84.9813 44.0822 85.1145 44.1882 85.2726C45.35 87.033 46.508 88.797 47.6666 90.5618C49.5264 93.3946 51.3876 96.2296 53.2676 99.0552C53.4711 99.3353 53.7438 99.5663 54.0171 99.7978C54.1768 99.9331 54.3367 100.069 54.4832 100.214H61.3795C62.6447 99.1785 62.7439 98.6361 61.8508 97.206C60.3996 94.8637 58.9422 92.5276 57.4848 90.1915C56.0274 87.8553 54.57 85.5192 53.1188 83.1769C52.9451 82.8564 52.8211 82.4619 52.8211 82.092C52.7963 73.5118 52.7963 64.907 52.7963 56.3267V55.6364C53.0804 55.6364 53.3537 55.6406 53.6196 55.6448C54.2591 55.6547 54.8548 55.664 55.4506 55.6117C56.3189 55.5378 57.1871 55.3898 58.0057 55.1186C61.3051 54.0831 63.7362 51.9627 65.4479 48.9793C66.3161 47.4753 66.0432 46.5877 64.4308 45.9467C63.4013 45.5275 62.3718 45.1145 61.3423 44.7015C60.3128 44.2885 59.2833 43.8756 58.2538 43.4564C58.0306 43.3578 57.7577 43.1112 57.6833 42.8893C57.0631 40.8183 55.7483 39.4129 53.7141 38.6485C53.5157 38.5746 53.2924 38.254 53.2676 38.0321C53.1188 36.824 53.0195 35.5912 52.9203 34.3584C52.8707 33.5694 52.5482 32.9284 51.7544 32.6818C50.9606 32.4353 50.3404 32.8051 49.8194 33.3969C49.4671 33.7996 49.1022 34.1899 48.7159 34.6031C48.5583 34.7717 48.3971 34.9441 48.2318 35.1228C48.1574 34.8762 48.1078 34.7529 48.0581 34.6296L48.0581 34.6296C47.7356 33.4955 47.4132 32.3613 47.0659 31.2272C46.8426 30.4628 46.272 30.0437 45.5774 30.019C44.8332 29.9697 44.2627 30.3642 43.9402 31.1285C43.8906 31.2765 43.8409 31.3997 43.7913 31.523C42.2206 35.8284 40.404 39.7764 38.5877 43.7236C36.7322 47.7558 34.8772 51.7872 33.2851 56.1979C33.0867 56.7649 32.789 57.0608 32.1936 57.2334C26.1763 62.615 23.6045 65.3861 20.8569 68.3467C20.2444 69.0067 19.6231 69.6762 18.953 70.386C15.2816 75.835 12.1128 81.6729 13.3035 88.182C13.8989 91.4119 15.1889 94.3213 17.5703 96.6636C17.5992 96.6923 17.6112 96.7292 17.626 96.7746C17.6367 96.8072 17.6488 96.8442 17.6696 96.8855C14.2958 97.1814 10.8724 96.4417 8.01963 94.8391C5.06759 93.1625 2.83496 90.7955 1.29693 87.8122C0.961488 87.1908 0.504218 86.8303 0 86.7421V91.9275C2.65521 95.6674 6.30791 98.2092 10.9717 99.499C11.7651 99.7093 12.5837 99.8573 13.4006 100.005Z" fill="white" fill-opacity="0.5"/>
</svg>
