<svg width="128" height="68" viewBox="0 0 128 68" fill="none" xmlns="http://www.w3.org/2000/svg">
<path d="M26.3009 23.9482C25.4399 19.8332 25.6279 15.6834 27.9149 11.8946C31.0029 6.77889 36.6882 5.57209 41.6538 8.91939C48.1529 13.3004 50.7294 23.3707 47.1382 30.3559C43.9624 36.5332 37.158 37.8336 31.8365 33.29C29.0702 30.8654 27.1265 27.5852 26.3009 23.9482V23.9482Z" fill="#61DED7"/>
<path d="M67.5952 16.242C66.8179 12.4718 67.1022 8.64031 69.4978 5.09329C72.7339 0.301972 78.5035 -0.944078 83.4479 2.02521C89.9157 5.90935 92.2954 15.1437 88.5091 21.6654C85.1577 27.4379 78.2565 28.7976 72.9803 24.7324C70.2377 22.5602 68.3467 19.5787 67.5952 16.242V16.242Z" fill="#61DED7"/>
<path d="M23.8251 50.8566C24.7073 54.7079 24.0606 58.7487 22.0228 62.1184C18.9333 67.1142 13.4644 68.4337 8.39978 65.4736C1.31109 61.3307 -1.36539 50.3342 3.02628 43.3964C6.26856 38.2743 12.1212 37.0395 17.1592 40.4145C20.3476 42.5505 22.6489 45.9933 23.8251 50.8566Z" fill="#61DED7"/>
<path d="M126.84 19.9159C127.653 23.8534 127.387 27.7147 125.041 31.2861C121.902 36.0661 116.44 37.3829 111.431 34.6314C104.421 30.7812 101.89 20.3703 106.349 13.7301C109.641 8.82897 115.491 7.58212 120.462 10.7358C123.9 12.9172 125.807 16.1037 126.84 19.9159Z" fill="#61DED7"/>
</svg>
