<svg width="128" height="60" viewBox="0 0 128 60" fill="none" xmlns="http://www.w3.org/2000/svg">
<path d="M27.3008 20.9483C26.4399 16.8332 26.6279 12.6834 28.9149 8.89467C32.0029 3.77892 37.6882 2.57212 42.6538 5.91942C49.1529 10.3005 51.7293 20.3707 48.1382 27.3559C44.9624 33.5333 38.1579 34.8337 32.8364 30.29C30.0701 27.8654 28.1264 24.5853 27.3008 20.9483Z" fill="#000000"/>
<path d="M67.5952 16.242C66.8178 12.4718 67.1021 8.64028 69.4978 5.09326C72.7338 0.301941 78.5034 -0.944109 83.4478 2.02518C89.9156 5.90932 92.2953 15.1437 88.509 21.6653C85.1577 27.4379 78.2565 28.7976 72.9803 24.7324C70.2376 22.5601 68.3466 19.5787 67.5952 16.242Z" fill="#000000"/>
<path d="M23.8251 42.8566C24.7073 46.7078 24.0606 50.7487 22.0228 54.1184C18.9333 59.1142 13.4644 60.4337 8.39978 57.4736C1.31109 53.3307 -1.36539 42.3342 3.02628 35.3964C6.26856 30.2743 12.1212 29.0395 17.1592 32.4145C20.3476 34.5505 22.6489 37.9933 23.8251 42.8566Z" fill="#000000"/>
<path d="M126.84 20.9159C127.653 24.8534 127.387 28.7147 125.041 32.2862C121.902 37.0662 116.44 38.3829 111.431 35.6314C104.421 31.7812 101.89 21.3703 106.349 14.7301C109.641 9.829 115.491 8.58215 120.462 11.7358C123.9 13.9172 125.807 17.1037 126.84 20.9159Z" fill="#000000"/>
</svg>
