<svg width="128" height="65" viewBox="0 0 128 65" fill="none" xmlns="http://www.w3.org/2000/svg">
<path d="M29.3009 26.9482C28.4399 22.8332 28.6279 18.6834 30.9149 14.8946C34.0029 9.77889 39.6882 8.57209 44.6538 11.9194C51.1529 16.3004 53.7294 26.3707 50.1382 33.3559C46.9624 39.5332 40.158 40.8336 34.8365 36.29C32.0702 33.8654 30.1265 30.5852 29.3009 26.9482V26.9482Z" fill="#61DED7"/>
<path d="M67.5952 16.242C66.8179 12.4718 67.1022 8.64031 69.4978 5.09329C72.7339 0.301972 78.5035 -0.944078 83.4479 2.02521C89.9157 5.90935 92.2954 15.1437 88.5091 21.6654C85.1577 27.4379 78.2565 28.7976 72.9803 24.7324C70.2377 22.5602 68.3467 19.5787 67.5952 16.242V16.242Z" fill="#61DED7"/>
<path d="M23.8251 47.8566C24.7073 51.7079 24.0606 55.7487 22.0228 59.1184C18.9333 64.1142 13.4644 65.4337 8.39978 62.4736C1.31109 58.3307 -1.36539 47.3342 3.02628 40.3964C6.26856 35.2743 12.1212 34.0395 17.1592 37.4145C20.3476 39.5505 22.6489 42.9933 23.8251 47.8566Z" fill="#61DED7"/>
<path d="M126.84 19.9159C127.653 23.8534 127.387 27.7147 125.041 31.2861C121.902 36.0661 116.44 37.3829 111.431 34.6314C104.421 30.7812 101.89 20.3703 106.349 13.7301C109.641 8.82897 115.491 7.58212 120.462 10.7358C123.9 12.9172 125.807 16.1037 126.84 19.9159Z" fill="#61DED7"/>
</svg>
