<svg width="16" height="22" viewBox="0 0 16 22" fill="none" xmlns="http://www.w3.org/2000/svg">
<path d="M10.6523 8.91388L13.0383 4.14893L13.6752 6.05388C13.7516 6.28253 13.9143 6.4577 14.1154 6.55595C14.3166 6.6542 14.5562 6.67555 14.7867 6.59672C15.2476 6.43916 15.4972 5.94054 15.3443 5.48309L14.0389 1.57854C13.886 1.12116 13.3883 0.878072 12.9274 1.03562L8.99318 2.38084C8.53227 2.53839 8.28259 3.03701 8.43553 3.49447C8.58845 3.95185 9.08611 4.19493 9.54702 4.03738L11.4664 3.38113L9.08039 8.14608C5.93408 7.09098 2.37667 8.51054 0.843343 11.5726C-0.823604 14.9016 0.523301 18.9302 3.84581 20.5531C7.16832 22.176 11.2276 20.788 12.8945 17.4591C14.4278 14.397 13.4109 10.7431 10.6523 8.91388ZM4.63445 18.9782C2.17868 17.7786 1.18314 14.8009 2.41523 12.3404C3.64733 9.87991 6.64764 8.85403 9.10341 10.0536C11.5592 11.2531 12.5547 14.2308 11.3226 16.6913C10.0905 19.1518 7.09022 20.1777 4.63445 18.9782Z" fill="#63B1E1"/>
</svg>
