<svg width="12" height="19" viewBox="0 0 12 19" fill="none" xmlns="http://www.w3.org/2000/svg">
<path d="M11.1375 6.53014C11.1375 3.45359 8.63936 0.950623 5.56875 0.950623C2.49814 0.950623 0 3.45359 0 6.53014C0 9.36007 2.11375 11.7045 4.84239 12.0622V15.0692H3.14755C2.74641 15.0692 2.4212 15.3951 2.4212 15.797C2.4212 16.1989 2.74641 16.5247 3.14755 16.5247H4.84239V18.2229C4.84239 18.6248 5.16761 18.9506 5.56875 18.9506C5.96989 18.9506 6.29511 18.6248 6.29511 18.2229V16.5247H7.98994C8.39109 16.5247 8.7163 16.1989 8.7163 15.797C8.7163 15.3951 8.39109 15.0692 7.98994 15.0692H6.29511V12.0622C9.02375 11.7045 11.1375 9.36007 11.1375 6.53014V6.53014ZM1.45272 6.53014C1.45272 4.25617 3.29917 2.40615 5.56875 2.40615C7.83833 2.40615 9.68478 4.25617 9.68478 6.53014C9.68478 8.80411 7.83833 10.6541 5.56875 10.6541C3.29917 10.6541 1.45272 8.80411 1.45272 6.53014Z" fill="#FFA8A8"/>
</svg>
