<svg width="14" height="18" viewBox="0 0 14 18" fill="none" xmlns="http://www.w3.org/2000/svg">
<path d="M9.78845 6.86951L11.7945 2.94927L12.3299 4.51652C12.3942 4.70464 12.531 4.84875 12.7001 4.92958C12.8692 5.01042 13.0707 5.02798 13.2644 4.96312C13.6519 4.8335 13.8618 4.42327 13.7332 4.04691L12.6357 0.834532C12.5071 0.458234 12.0887 0.258241 11.7012 0.387864L8.39358 1.49461C8.00607 1.62423 7.79615 2.03446 7.92474 2.41082C8.0533 2.78712 8.47171 2.98711 8.85921 2.85749L10.4729 2.31757L8.4669 6.23782C5.82167 5.36977 2.83079 6.53768 1.54166 9.05694C0.14019 11.7957 1.27259 15.1102 4.06596 16.4454C6.85934 17.7806 10.2721 16.6387 11.6736 13.8999C12.9627 11.3806 12.1078 8.37447 9.78845 6.86951ZM4.72901 15.1497C2.66434 14.1628 1.82735 11.713 2.86322 9.68863C3.89909 7.6643 6.42158 6.82027 8.48625 7.80716C10.5509 8.79405 11.3879 11.2439 10.352 13.2682C9.31616 15.2925 6.79367 16.1366 4.72901 15.1497Z" fill="#63B1E1"/>
</svg>
