<svg width="14" height="23" viewBox="0 0 14 23" fill="none" xmlns="http://www.w3.org/2000/svg">
<path d="M13.4444 7.68584C13.4444 3.97204 10.4289 0.950623 6.72222 0.950623C3.01559 0.950623 0 3.97204 0 7.68584C0 11.1019 2.55158 13.932 5.84541 14.3638V17.9937H3.79952C3.31528 17.9937 2.92271 18.387 2.92271 18.8722C2.92271 19.3573 3.31528 19.7507 3.79952 19.7507H5.84541V21.8005C5.84541 22.2857 6.23799 22.679 6.72222 22.679C7.20646 22.679 7.59903 22.2857 7.59903 21.8005V19.7507H9.64493C10.1292 19.7507 10.5217 19.3573 10.5217 18.8722C10.5217 18.387 10.1292 17.9937 9.64493 17.9937H7.59903V14.3638C10.8929 13.932 13.4444 11.1019 13.4444 7.68584ZM1.75362 7.68584C1.75362 4.94086 3.98254 2.70764 6.72222 2.70764C9.46191 2.70764 11.6908 4.94086 11.6908 7.68584C11.6908 10.4308 9.46191 12.664 6.72222 12.664C3.98254 12.664 1.75362 10.4308 1.75362 7.68584Z" fill="#FFA8A8"/>
</svg>
