<svg width="160" height="130" viewBox="0 0 160 130" fill="none" xmlns="http://www.w3.org/2000/svg">
<path d="M118.522 117.952C112.494 119.09 106.298 118.998 100.306 117.682C96.0639 116.632 91.6509 116.465 87.3411 117.192C83.0314 117.918 78.9167 119.522 75.2528 121.904C58.8972 131.715 41.9985 132.237 25.2043 123.079C19.6593 120.082 14.7691 116.007 10.8206 111.095C6.8721 106.182 3.94479 100.531 2.21049 94.4719C-0.674219 85.2273 0.475459 76.8115 6.49163 69.1885C8.90143 66.1351 11.447 63.1764 14.0914 60.3232C17.6707 56.6106 19.8803 51.7913 20.3571 46.6573C22.1435 28.0627 32.2615 15.3839 48.8771 7.73974C62.8547 1.01373 78.6859 -0.827115 93.8335 2.5122C107.957 5.66391 118.635 13.6746 125.02 26.7818C127.513 32.2067 131.812 36.5991 137.182 39.2104C140.951 41.1371 144.603 43.2865 148.116 45.6471C151.252 47.6907 153.865 50.4406 155.746 53.6762C157.626 56.9119 158.722 60.5431 158.945 64.2787C160.375 76.5639 157.001 88.9267 149.53 98.7859C142.081 108.963 130.958 115.838 118.522 117.952Z" fill="#61DED7"/>
</svg>
