<svg width="40" height="40" viewBox="0 0 40 40" fill="none" xmlns="http://www.w3.org/2000/svg">
<path fill-rule="evenodd" clip-rule="evenodd" d="M10 19.005C9.99985 20.701 10.4786 22.3626 11.3811 23.7985C12.2837 25.2344 13.5733 26.3863 15.1016 27.1215C16.6299 27.8568 18.3348 28.1455 20.0199 27.9544C21.7051 27.7634 23.302 27.1004 24.627 26.0417L28.3042 29.7191C28.493 29.9014 28.7457 30.0022 29.0081 30C29.2704 29.9977 29.5214 29.8924 29.7069 29.7069C29.8924 29.5214 29.9977 29.2704 30 29.008C30.0022 28.7457 29.9014 28.4929 29.7191 28.3042L26.0419 24.6267C26.9396 23.5027 27.5551 22.18 27.8368 20.7692C28.1184 19.3585 28.058 17.9008 27.6607 16.5182C27.2633 15.1356 26.5405 13.8683 25.5528 12.8224C24.5651 11.7765 23.3413 10.9825 21.9837 10.5067C20.6262 10.031 19.1744 9.88739 17.7499 10.088C16.3255 10.2885 14.9698 10.8275 13.7964 11.6596C12.6229 12.4917 11.6659 13.5929 11.0054 14.8708C10.3449 16.1488 10.0002 17.5664 10 19.005ZM19.0055 26.0096C20.8183 26.0119 22.5608 25.3089 23.8645 24.0493C23.9178 23.9798 23.9801 23.9175 24.0496 23.8642C25.1699 22.701 25.8538 21.1865 25.9857 19.5769C26.1176 17.9674 25.6892 16.3617 24.7732 15.0317C23.8572 13.7017 22.5098 12.7291 20.959 12.2785C19.4083 11.8279 17.7495 11.9271 16.2634 12.5591C14.7774 13.1912 13.5553 14.3174 12.8042 15.747C12.0531 17.1766 11.8191 18.8219 12.1417 20.4043C12.4643 21.9867 13.3237 23.409 14.5745 24.4305C15.8253 25.452 17.3907 26.0098 19.0055 26.0096Z" fill="#BDBDBD"/>
<rect x="0.5" y="0.5" width="39" height="39" rx="19.5" stroke="#CECECE"/>
</svg>
