<svg width="20" height="20" viewBox="0 0 20 20" fill="none" xmlns="http://www.w3.org/2000/svg">
<path fill-rule="evenodd" clip-rule="evenodd" d="M3.37047e-08 9.005C-0.000146668 10.701 0.478602 12.3626 1.38114 13.7985C2.28368 15.2344 3.57332 16.3863 5.10163 17.1215C6.62993 17.8568 8.33478 18.1455 10.0199 17.9544C11.7051 17.7634 13.302 17.1004 14.627 16.0417L18.3042 19.7191C18.493 19.9014 18.7457 20.0022 19.0081 20C19.2704 19.9977 19.5214 19.8924 19.7069 19.7069C19.8924 19.5214 19.9977 19.2704 20 19.008C20.0022 18.7457 19.9014 18.4929 19.7191 18.3042L16.0419 14.6267C16.9396 13.5027 17.5551 12.18 17.8368 10.7692C18.1184 9.3585 18.058 7.90082 17.6607 6.51822C17.2633 5.13561 16.5405 3.86832 15.5528 2.82243C14.5651 1.77654 13.3413 0.982484 11.9837 0.506736C10.6262 0.0309883 9.17438 -0.112608 7.74992 0.0879684C6.32546 0.288545 4.96978 0.827457 3.79635 1.65959C2.62293 2.49173 1.66591 3.59287 1.00541 4.87084C0.344913 6.14881 0.000155795 7.56642 3.37047e-08 9.005ZM9.00553 16.0096C10.8183 16.0118 12.5608 15.3089 13.8645 14.0493C13.9178 13.9798 13.9801 13.9175 14.0496 13.8642C15.1699 12.701 15.8538 11.1865 15.9857 9.57693C16.1176 7.96737 15.6892 6.36169 14.7732 5.03169C13.8572 3.70169 12.5098 2.72908 10.959 2.27851C9.40826 1.82793 7.74946 1.92707 6.26341 2.55913C4.77736 3.1912 3.55535 4.31737 2.80424 5.747C2.05313 7.17663 1.81906 8.8219 2.14166 10.4043C2.46426 11.9867 3.32371 13.409 4.57452 14.4305C5.82533 15.452 7.39066 16.0098 9.00553 16.0096Z" fill="#BDBDBD"/>
</svg>
