<svg width="35" height="30" viewBox="0 0 35 30" fill="none" xmlns="http://www.w3.org/2000/svg">
<path fill-rule="evenodd" clip-rule="evenodd" d="M25.062 1.49093e-06C23.7574 7.70361e-05 22.4655 0.249582 21.2602 0.734262C20.0549 1.21894 18.9598 1.9293 18.0375 2.82476L17.4981 3.3482L16.9587 2.82476C16.0362 1.92961 14.9411 1.21953 13.7358 0.735078C12.5306 0.250623 11.2388 0.00127703 9.93418 0.00127703C7.29947 0.00127703 4.77267 1.01692 2.90965 2.82476C1.04663 4.63261 0 7.08458 0 9.64126C0 12.1979 1.04663 14.6499 2.90965 16.4578L16.4178 29.5659C16.7043 29.8438 17.0929 30 17.4981 30C17.9033 30 18.2919 29.8438 18.5785 29.5659L32.0866 16.4578C33.4772 15.11 34.4245 13.3921 34.8085 11.5217C35.1926 9.65119 34.9961 7.7122 34.244 5.95012C33.4919 4.18805 32.218 2.68211 30.5835 1.62293C28.9491 0.563748 27.0275 -0.0010591 25.062 1.49093e-06V1.49093e-06ZM28.3061 15.9328L17.4981 26.4208L5.07034 14.3611C3.78037 13.1093 3.05567 11.4115 3.05567 9.64126C3.05567 7.871 3.78037 6.17323 5.07034 4.92146C6.36031 3.6697 8.10988 2.96646 9.93418 2.96646C11.7585 2.96646 13.508 3.6697 14.798 4.92146L16.4178 6.49325C16.7043 6.77123 17.0929 6.9274 17.4981 6.9274C17.9033 6.9274 18.2919 6.77123 18.5785 6.49325L20.1982 4.92146C21.4882 3.6697 23.2377 2.96646 25.062 2.96646C26.8863 2.96646 28.6359 3.6697 29.9259 4.92146C31.2158 6.17323 31.9405 7.871 31.9405 9.64126C31.9405 11.4115 31.2158 13.1093 29.9259 14.3611L28.3061 15.9328V15.9328Z" fill="white"/>
</svg>
