<svg width="400" height="400" viewBox="0 0 400 400" fill="none" xmlns="http://www.w3.org/2000/svg">
<rect width="400" height="400" fill="#C9F0E7"/>
<path d="M332.601 269.486C331.931 272.611 331.41 275.47 330.74 278.395C329.251 285.244 324.858 290.829 320.54 296.414C320.391 296.547 320.242 296.68 320.168 296.88C318.232 301.002 314.211 300.603 310.34 300.404C308.776 300.271 308.181 298.808 309.446 297.744C313.839 294.021 314.211 288.967 315.477 284.247C316.147 281.853 315.998 279.393 314.584 277.132C311.605 272.278 308.627 267.425 305.575 262.637C305.277 262.172 304.309 261.839 303.788 261.906C296.194 262.903 288.674 264.167 281.079 264.898C274.602 265.563 268.05 265.629 261.498 265.829C258.818 265.895 258.371 266.161 258.967 268.555C260.903 276.8 261.945 285.044 260.381 293.422C260.307 293.755 260.307 294.021 260.158 294.353C258.669 300.138 258.446 300.337 251.894 300.404C250.181 300.404 248.394 300.404 246.533 300.404C246.086 298.409 247.724 297.544 248.841 296.414C249.362 295.949 249.883 295.151 249.735 294.619C248.245 286.906 245.565 279.659 239.758 273.542C239.609 273.342 239.386 273.143 239.162 273.01C239.088 272.943 238.939 272.943 238.939 272.943C237.599 276.667 236.631 280.59 234.769 284.114C232.015 289.233 228.59 294.087 225.463 299.074C224.718 300.204 223.75 300.537 222.336 300.47C220.4 300.404 218.39 300.404 216.454 300.47C214.593 300.537 214.071 299.672 214.593 298.409C215.039 297.345 215.709 296.148 216.677 295.483C218.464 294.286 219.432 292.757 219.804 290.962C220.847 285.709 222.038 280.457 222.708 275.204C223.378 269.419 223.452 263.502 223.974 257.717C224.197 255.124 223.676 252.797 222.261 250.669C217.049 242.956 210.2 237.039 200.149 234.579C197.617 233.98 195.086 232.85 193.075 231.454C188.981 228.595 188.906 224.472 192.629 221.214C194.267 219.751 195.235 218.156 195.532 216.028C196.351 211.241 199.702 207.916 204.243 205.456C205.36 204.858 205.881 204.193 206.179 203.062C206.7 200.868 207.296 198.674 208.264 196.546C209.679 193.488 212.657 193.022 215.039 195.483C217.571 198.009 220.102 200.602 221.889 203.594C227.399 212.703 236.407 216.892 247.203 218.821C256.286 220.483 265.519 220.483 274.751 219.685C288.674 218.555 302.596 217.025 316.519 215.961C324.411 215.363 332.378 215.496 340.27 216.892C342.429 217.291 345.035 217.225 347.045 216.56C359.628 212.105 368.711 204.459 372.508 192.69C373.402 189.897 373.104 186.706 373.104 183.714C373.104 178.528 372.657 173.275 372.955 168.089C373.402 160.177 381.815 152.264 389.93 151.599C393.802 151.267 396.855 152.73 398.046 155.456C399.386 158.581 398.344 161.373 394.993 163.435C393.43 164.432 391.792 165.296 390.154 166.094C386.059 167.956 384.346 171.147 384.346 175.07C384.272 179.126 384.346 183.248 384.793 187.304C386.059 199.339 380.847 209.246 371.764 217.624C367.222 221.813 362.01 225.337 356.873 228.993C354.863 230.456 353.746 231.853 354.267 234.246C355.98 242.424 355.384 250.603 354.193 258.781C353.672 262.637 354.639 266.826 355.756 270.616C357.171 275.536 357.245 280.257 355.161 284.845C353.002 289.566 350.47 294.087 348.088 298.675C347.343 300.138 346.003 300.736 344.142 300.603C342.727 300.47 341.312 300.603 339.898 300.537C338.111 300.47 337.068 298.941 338.26 297.877C341.908 294.619 341.312 290.231 342.429 286.374C342.95 284.579 343.248 282.584 342.876 280.789C342.504 278.994 341.536 276.999 340.196 275.669C337.887 273.276 335.207 271.547 332.601 269.486ZM202.159 218.621C202.233 218.488 202.308 218.422 202.382 218.289C202.606 218.289 202.829 218.289 202.978 218.289C204.392 218.289 205.435 217.624 205.211 216.427C205.137 215.829 203.573 214.765 203.35 214.898C202.084 215.563 201.042 216.493 199.925 217.358C200.67 217.757 201.414 218.222 202.159 218.621Z" fill="white" fill-opacity="0.5"/>
<path fill-rule="evenodd" clip-rule="evenodd" d="M41.2329 307.708C42.2554 307.893 43.2771 308.078 44.2923 308.275H44.2992C78.2634 308.275 112.228 308.275 145.963 308.503C149.932 306.53 149.779 303.117 149.169 299.627C147.718 291.813 142.681 287.109 135.735 283.999C134.436 283.403 133.104 282.937 131.718 282.452C130.987 282.196 130.24 281.935 129.476 281.647C132.758 275.199 134.208 268.295 133.598 260.936C133.712 260.86 133.807 260.803 133.903 260.746C133.998 260.69 134.094 260.633 134.208 260.557C134.384 260.731 134.565 260.899 134.746 261.066C135.195 261.481 135.637 261.891 135.964 262.378C139.538 267.794 143.101 273.221 146.666 278.651C152.389 287.368 158.115 296.091 163.9 304.786C164.527 305.647 165.366 306.358 166.206 307.07C166.698 307.487 167.19 307.903 167.64 308.351H188.86C192.753 305.165 193.058 303.496 190.31 299.096C185.845 291.889 181.361 284.701 176.876 277.512C172.392 270.324 167.908 263.136 163.442 255.929C162.908 254.943 162.526 253.729 162.526 252.591C162.45 226.19 162.45 199.714 162.45 173.313V171.189C163.324 171.189 164.165 171.202 164.983 171.215C166.951 171.245 168.784 171.274 170.617 171.113C173.289 170.886 175.96 170.43 178.479 169.596C188.631 166.41 196.111 159.885 201.378 150.706C204.049 146.078 203.21 143.347 198.248 141.375C195.081 140.085 191.913 138.814 188.745 137.543C185.578 136.273 182.41 135.002 179.242 133.712C178.555 133.409 177.716 132.65 177.487 131.967C175.579 125.595 171.533 121.271 165.274 118.919C164.664 118.691 163.977 117.705 163.9 117.022C163.442 113.305 163.137 109.512 162.832 105.72L162.832 105.719C162.679 103.291 161.687 101.318 159.244 100.56C156.802 99.8011 154.893 100.939 153.291 102.76C152.206 103.999 151.084 105.2 149.895 106.471C149.41 106.99 148.914 107.521 148.405 108.07C148.176 107.312 148.024 106.932 147.871 106.553L147.871 106.553C146.879 103.063 145.887 99.5735 144.818 96.0838C144.131 93.732 142.375 92.4423 140.238 92.3664C137.948 92.2147 136.193 93.4285 135.2 95.7803C135.048 96.2355 134.895 96.6148 134.743 96.9941C129.91 110.241 124.32 122.389 118.731 134.534C113.022 146.941 107.314 159.346 102.416 172.917C101.805 174.662 100.889 175.572 99.0573 176.103C80.5423 192.662 72.6293 201.188 64.1751 210.298C62.2904 212.329 60.3788 214.388 58.3168 216.573C47.0201 233.339 37.27 251.301 40.9338 271.33C42.7657 281.268 46.7349 290.22 54.0625 297.427C54.1512 297.515 54.1884 297.629 54.2339 297.768C54.2667 297.869 54.3039 297.982 54.3678 298.109C43.987 299.02 33.4536 296.744 24.6757 291.813C15.5925 286.654 8.7229 279.371 3.99049 270.192C2.95838 268.28 1.55142 267.171 0 266.899L0 282.854C8.16987 294.361 19.4089 302.182 33.7589 306.151C36.2005 306.798 38.7193 307.254 41.2329 307.708Z" fill="white" fill-opacity="0.5"/>
</svg>
