<svg width="400" height="400" viewBox="0 0 400 400" fill="none" xmlns="http://www.w3.org/2000/svg">
<rect width="400" height="400" fill="#C9F0E7"/>
<path d="M332.601 269.486C331.931 272.611 331.41 275.47 330.74 278.395C329.251 285.244 324.858 290.829 320.54 296.414C320.391 296.547 320.242 296.68 320.168 296.88C318.232 301.002 314.211 300.603 310.34 300.404C308.776 300.271 308.181 298.808 309.446 297.744C313.839 294.021 314.211 288.967 315.477 284.247C316.147 281.853 315.998 279.393 314.584 277.132C311.605 272.278 308.627 267.425 305.575 262.637C305.277 262.172 304.309 261.839 303.788 261.906C296.194 262.903 288.674 264.167 281.079 264.898C274.602 265.563 268.05 265.629 261.498 265.829C258.818 265.895 258.371 266.161 258.967 268.555C260.903 276.8 261.945 285.044 260.381 293.422C260.307 293.755 260.307 294.021 260.158 294.353C258.669 300.138 258.446 300.337 251.894 300.404C250.181 300.404 248.394 300.404 246.533 300.404C246.086 298.409 247.724 297.544 248.841 296.414C249.362 295.949 249.883 295.151 249.735 294.619C248.245 286.906 245.565 279.659 239.758 273.542C239.609 273.342 239.386 273.143 239.162 273.01C239.088 272.943 238.939 272.943 238.939 272.943C237.599 276.667 236.631 280.59 234.769 284.114C232.015 289.233 228.59 294.087 225.463 299.074C224.718 300.204 223.75 300.537 222.336 300.47C220.4 300.404 218.39 300.404 216.454 300.47C214.593 300.537 214.071 299.672 214.593 298.409C215.039 297.345 215.709 296.148 216.677 295.483C218.464 294.286 219.432 292.757 219.804 290.962C220.847 285.709 222.038 280.457 222.708 275.204C223.378 269.419 223.452 263.502 223.974 257.717C224.197 255.124 223.676 252.797 222.261 250.669C217.049 242.956 210.2 237.039 200.149 234.579C197.617 233.98 195.086 232.85 193.075 231.454C188.981 228.595 188.906 224.472 192.629 221.214C194.267 219.751 195.235 218.156 195.532 216.028C196.351 211.241 199.702 207.916 204.243 205.456C205.36 204.858 205.881 204.193 206.179 203.062C206.7 200.868 207.296 198.674 208.264 196.546C209.679 193.488 212.657 193.022 215.039 195.483C217.571 198.009 220.102 200.602 221.889 203.594C227.399 212.703 236.407 216.892 247.203 218.821C256.286 220.483 265.519 220.483 274.751 219.685C288.674 218.555 302.596 217.025 316.519 215.961C324.411 215.363 332.378 215.496 340.27 216.892C342.429 217.291 345.035 217.225 347.045 216.56C359.628 212.105 368.711 204.459 372.508 192.69C373.402 189.897 373.104 186.706 373.104 183.714C373.104 178.528 372.657 173.275 372.955 168.089C373.402 160.177 381.815 152.264 389.93 151.599C393.802 151.267 396.855 152.73 398.046 155.456C399.386 158.581 398.344 161.373 394.993 163.435C393.43 164.432 391.792 165.296 390.154 166.094C386.059 167.956 384.346 171.147 384.346 175.07C384.272 179.126 384.346 183.248 384.793 187.304C386.059 199.339 380.847 209.246 371.764 217.624C367.222 221.813 362.01 225.337 356.873 228.993C354.863 230.456 353.746 231.853 354.267 234.246C355.98 242.424 355.384 250.603 354.193 258.781C353.672 262.637 354.639 266.826 355.756 270.616C357.171 275.536 357.245 280.257 355.161 284.845C353.002 289.566 350.47 294.087 348.088 298.675C347.343 300.138 346.003 300.736 344.142 300.603C342.727 300.47 341.312 300.603 339.898 300.537C338.111 300.47 337.068 298.941 338.26 297.877C341.908 294.619 341.312 290.231 342.429 286.374C342.95 284.579 343.248 282.584 342.876 280.789C342.504 278.994 341.536 276.999 340.196 275.669C337.887 273.276 335.207 271.547 332.601 269.486ZM202.159 218.621C202.233 218.488 202.308 218.422 202.382 218.289C202.606 218.289 202.829 218.289 202.978 218.289C204.392 218.289 205.435 217.624 205.211 216.427C205.137 215.829 203.573 214.765 203.35 214.898C202.084 215.563 201.042 216.493 199.925 217.358C200.67 217.757 201.414 218.222 202.159 218.621Z" fill="white" fill-opacity="0.5"/>
<path fill-rule="evenodd" clip-rule="evenodd" d="M41.2329 307.708C42.2554 307.893 43.2771 308.078 44.2923 308.275H44.2992C78.2634 308.275 112.228 308.275 145.963 308.503C149.932 306.53 149.779 303.117 149.169 299.627C147.718 291.813 142.681 287.109 135.735 283.999C134.436 283.403 133.104 282.937 131.718 282.452C130.987 282.196 130.24 281.935 129.476 281.647C132.758 275.199 134.208 268.295 133.598 260.936C133.712 260.86 133.808 260.803 133.903 260.746C133.998 260.69 134.094 260.633 134.208 260.557C134.384 260.731 134.565 260.899 134.746 261.066C135.195 261.481 135.637 261.891 135.964 262.378C139.538 267.794 143.101 273.221 146.666 278.651C152.388 287.367 158.115 296.091 163.9 304.786C164.527 305.647 165.366 306.358 166.206 307.07C166.698 307.487 167.19 307.903 167.64 308.351H188.86C192.753 305.165 193.058 303.496 190.31 299.096C185.845 291.888 181.36 284.7 176.876 277.512C172.392 270.324 167.907 263.136 163.442 255.929C162.908 254.943 162.526 253.729 162.526 252.591C162.45 226.19 162.45 199.714 162.45 173.313V171.189C163.324 171.189 164.165 171.202 164.983 171.215C166.951 171.245 168.784 171.274 170.617 171.113C173.289 170.886 175.96 170.43 178.479 169.596C188.631 166.41 196.111 159.885 201.378 150.706C204.049 146.078 203.21 143.347 198.248 141.375C195.081 140.085 191.913 138.814 188.745 137.543C185.578 136.273 182.41 135.002 179.242 133.712C178.555 133.409 177.716 132.65 177.487 131.967C175.579 125.595 171.533 121.271 165.274 118.919C164.664 118.691 163.977 117.705 163.9 117.022C163.442 113.305 163.137 109.512 162.832 105.72L162.832 105.719C162.679 103.291 161.687 101.318 159.244 100.56C156.802 99.8011 154.893 100.939 153.291 102.76C152.206 103.999 151.084 105.2 149.895 106.471C149.41 106.99 148.914 107.521 148.405 108.07C148.176 107.312 148.024 106.932 147.871 106.553C146.879 103.063 145.887 99.5735 144.818 96.0838C144.131 93.732 142.375 92.4423 140.238 92.3664C137.948 92.2147 136.193 93.4285 135.2 95.7803C135.048 96.2355 134.895 96.6148 134.743 96.9941C129.91 110.241 124.32 122.389 118.731 134.534C113.022 146.941 107.314 159.346 102.416 172.917C101.805 174.662 100.889 175.572 99.0573 176.103C80.5423 192.662 72.6293 201.188 64.1752 210.298C62.2904 212.329 60.3788 214.388 58.3169 216.573C47.0201 233.339 37.27 251.301 40.9338 271.33C42.7657 281.268 46.7349 290.22 54.0625 297.427C54.1512 297.515 54.1884 297.629 54.2339 297.768C54.2667 297.869 54.3039 297.982 54.3678 298.109C43.987 299.02 33.4536 296.744 24.6757 291.813C15.5925 286.654 8.7229 279.371 3.99049 270.192C2.95838 268.28 1.55142 267.171 0 266.899L0 282.854C8.16987 294.361 19.4089 302.182 33.7589 306.151C36.2005 306.798 38.7193 307.254 41.2329 307.708Z" fill="white" fill-opacity="0.5"/>
<path d="M127.184 213.087V197.209C127.184 195.84 127.459 195.019 128.009 194.471C128.558 193.924 129.658 193.65 130.757 193.65H139.001V187.353C139.001 185.984 139.55 185.437 140.649 185.437C141.474 185.437 142.023 185.984 142.023 187.353V193.376H150.267C152.74 193.376 154.114 194.745 154.114 197.209V210.623C154.114 211.992 153.839 212.813 153.29 213.361C152.74 213.908 151.641 214.182 150.542 214.182H147.519C146.42 214.182 145.87 213.635 145.87 212.813C145.87 211.718 146.42 211.445 147.519 211.445H149.992C150.542 211.445 150.817 211.445 151.091 211.171C151.366 210.897 151.366 210.623 151.366 210.076V197.482C151.366 196.387 150.817 195.84 149.717 195.84H131.306C130.482 196.114 129.932 196.661 129.932 197.482V212.813C129.932 213.908 129.383 214.456 128.558 214.456C127.734 214.73 127.184 214.182 127.184 213.087ZM129.383 188.174C129.108 187.901 128.833 187.901 128.833 187.627C128.833 187.353 129.108 187.079 129.383 186.806C129.658 186.258 129.932 186.258 130.482 186.258C130.757 186.258 131.306 186.258 131.581 186.532C131.856 186.806 132.406 187.627 133.23 188.448C134.054 189.269 134.329 189.817 134.604 190.365C134.604 190.638 134.879 190.912 134.879 191.186C134.879 191.733 134.604 192.007 134.329 192.281C133.779 192.281 133.505 192.281 132.955 192.281C132.68 192.281 132.131 192.281 131.856 191.733C130.757 190.091 129.658 188.996 129.383 188.174ZM134.604 209.254C134.054 208.707 133.779 207.886 133.779 207.064V202.41C133.779 201.315 134.054 200.494 134.604 199.946C135.153 199.399 135.978 199.125 137.077 199.125H144.222C145.321 199.125 146.145 199.399 146.695 199.673C147.244 199.946 147.519 201.041 147.244 202.136V206.517C147.244 207.612 146.97 208.433 146.42 208.981C146.145 209.802 145.321 210.076 144.222 210.076H137.077C135.978 210.076 135.153 209.802 134.604 209.254ZM144.771 206.243V202.958C144.771 202.136 144.222 201.589 143.397 201.863H137.627C136.802 201.863 136.527 202.136 136.527 202.958V206.243C136.527 207.064 136.802 207.612 137.627 207.612H143.397C144.496 207.612 144.771 207.064 144.771 206.243ZM146.42 191.186C146.42 190.912 146.42 190.638 146.695 190.365C147.519 189.269 148.618 187.901 149.443 186.532C149.717 186.258 149.992 185.984 150.542 185.984C150.817 185.984 151.091 185.984 151.366 186.258C151.916 186.532 152.191 186.806 152.191 187.353C152.191 187.627 152.191 187.627 151.916 187.901C151.916 188.448 151.366 188.996 150.817 190.091C150.267 191.186 149.717 191.46 149.168 192.007C148.618 192.555 148.344 192.555 147.794 192.555C147.519 192.555 147.244 192.555 146.97 192.281C146.695 192.007 146.42 191.733 146.42 191.186Z" fill="#00948B"/>
<path d="M166.205 205.969C166.205 205.148 166.754 204.874 167.579 204.874H170.052V199.125H166.754C165.655 199.125 165.38 198.851 165.38 198.03C165.38 197.209 165.93 196.661 166.754 196.661H170.052V192.007C168.403 193.924 167.029 195.019 166.48 195.019C165.655 195.019 165.38 194.471 165.38 193.65C165.38 193.376 165.93 192.555 166.754 192.007C168.403 190.638 169.777 188.996 170.876 187.079C171.426 185.984 172.25 185.437 172.8 185.437C173.624 185.437 174.174 185.711 174.174 186.532C174.174 186.806 173.899 187.627 173.075 188.722H192.86C193.959 188.722 194.508 189.269 194.508 190.091C194.508 190.912 193.959 191.186 193.134 191.186H190.387V196.661H193.409C194.508 196.661 195.058 197.209 195.058 198.03C195.058 198.851 194.508 199.125 193.409 199.125H190.387V204.874H192.86C193.959 204.874 194.234 205.148 194.234 205.969C194.234 206.791 193.684 207.064 192.86 207.064H167.854C166.754 207.064 166.205 206.791 166.205 205.969ZM166.205 213.361C166.205 213.087 166.205 213.087 166.48 212.813C166.754 212.54 166.754 212.266 166.754 212.266C167.304 211.445 167.854 210.349 168.128 209.528C168.403 208.981 168.678 208.707 169.502 208.707C170.327 208.707 170.876 208.981 170.876 209.802C170.876 210.623 170.327 211.992 168.953 213.908C168.678 214.456 168.128 215.003 167.579 215.003C166.48 214.456 166.205 214.182 166.205 213.361ZM176.097 196.661V191.186H172.525V196.661H176.097ZM176.097 204.874V199.125H172.525V204.874H176.097ZM175.548 213.087L174.723 209.528C174.723 208.707 175.273 208.433 176.097 208.433C176.647 208.433 177.196 208.981 177.471 209.802C178.021 211.445 178.296 212.266 178.296 212.813C178.296 213.635 177.746 214.182 176.922 214.182C176.097 214.456 175.548 213.908 175.548 213.087ZM181.868 196.661V191.186H178.296V196.661H181.868ZM181.868 204.874V199.125H178.296V204.874H181.868ZM182.967 213.087C182.692 212.266 182.418 211.445 182.143 210.623C181.868 210.076 181.868 209.802 181.868 209.528C181.868 208.707 182.418 208.433 183.242 208.433C183.792 208.433 184.341 208.707 184.616 209.528C185.715 211.445 185.99 212.813 185.99 213.087C185.99 213.908 185.44 214.456 184.616 214.456C183.792 214.456 183.242 213.908 182.967 213.087ZM187.913 196.661V191.186H184.341V196.661H187.913ZM187.913 204.874V199.125H184.341V204.874H187.913ZM191.486 213.635C190.661 211.992 189.837 210.623 189.562 210.076C189.287 209.802 189.287 209.528 189.287 209.254C189.287 208.981 189.287 208.707 189.562 208.433C189.837 208.159 190.112 208.159 190.661 208.159C190.936 208.159 191.486 208.433 192.035 209.254C193.684 211.445 194.234 212.813 194.234 213.087C194.234 214.182 193.684 214.456 192.86 214.456C192.31 214.456 191.761 214.182 191.486 213.635Z" fill="#00948B"/>
<path d="M207.148 213.634C206.598 213.087 206.324 212.265 206.324 210.897V190.09C206.324 188.722 206.598 187.9 207.148 187.353C207.698 186.805 208.522 186.531 209.621 186.531H229.681C230.78 186.531 231.879 186.805 232.154 187.353C232.429 187.9 232.978 188.722 232.978 190.09V210.897C232.978 211.992 232.704 213.087 232.154 213.634C231.605 214.182 230.78 214.456 229.681 214.456H209.621C208.522 214.456 207.698 214.182 207.148 213.634ZM230.78 210.349V190.638C230.78 189.543 230.231 188.995 229.131 188.995H210.72C209.621 188.995 209.071 189.543 209.071 190.638V210.623C209.071 211.718 209.621 212.265 210.72 212.265H229.131C230.231 211.992 230.78 211.444 230.78 210.349ZM209.621 197.756C209.621 197.208 209.896 196.661 210.72 196.661H218.689V195.566H214.018C212.369 195.566 211.545 195.018 211.545 193.649V192.281C211.545 191.733 211.819 191.186 212.094 190.912C212.369 190.638 213.193 190.364 213.743 190.364H225.284C226.933 190.364 227.757 190.912 227.757 192.554V193.649C227.757 195.018 226.933 195.566 225.284 195.566H220.613V196.935H228.582C229.406 196.935 229.681 197.208 229.681 198.03C229.681 198.577 229.406 199.125 228.582 199.125H210.171C209.896 198.851 209.621 198.577 209.621 197.756ZM211.545 209.802C211.27 209.528 210.995 208.707 210.995 207.885V202.41C210.995 201.589 211.27 200.767 211.545 200.494C211.819 200.22 212.644 199.946 213.468 199.946H226.383C227.208 199.946 228.032 200.22 228.307 200.494C228.582 200.767 228.857 201.589 228.857 202.41V207.885C228.857 208.707 228.582 209.528 228.307 209.802C228.032 210.075 227.208 210.349 226.383 210.349H213.468C212.369 210.349 211.819 210.349 211.545 209.802ZM226.658 207.611V202.684C226.658 202.136 226.383 201.862 225.834 201.862H214.018C213.468 201.862 213.193 202.136 213.193 202.684V207.611C213.193 208.159 213.468 208.433 214.018 208.433H225.834C226.383 208.707 226.658 208.433 226.658 207.611ZM225.559 193.649C225.559 193.649 225.559 193.376 225.559 193.102C225.559 192.828 225.559 192.554 225.559 192.554L225.284 192.281H214.842C214.567 192.281 214.567 192.281 214.567 192.554C214.567 192.828 214.567 192.828 214.567 193.102C214.567 193.376 214.567 193.649 214.567 193.649C214.567 193.649 214.293 193.649 214.567 193.649H225.009C225.284 193.649 225.559 193.649 225.559 193.649ZM214.842 205.695V204.6C214.842 203.505 215.392 202.957 216.766 202.957H223.086C224.46 202.957 225.009 203.505 225.009 204.6V205.695C225.009 206.79 224.46 207.338 223.086 207.338H216.766C215.392 207.611 214.842 207.064 214.842 205.695ZM222.811 205.695C222.811 205.695 222.811 205.421 222.811 205.148C222.811 204.874 222.811 204.6 222.811 204.6H222.536H217.315C217.04 204.6 217.04 204.6 217.04 204.6C217.04 204.6 217.04 204.874 217.04 205.148C217.04 205.421 217.04 205.695 217.04 205.695H217.315H222.536C222.536 205.969 222.811 205.695 222.811 205.695Z" fill="#00948B"/>
<path d="M273.649 193.65C273.649 194.471 273.099 195.019 272 195.019H251.94V196.661C251.94 197.209 251.94 198.304 251.94 200.22H266.229C267.329 200.22 268.153 200.494 268.428 200.768C268.703 201.041 268.977 201.863 268.977 202.958V212.813C268.977 213.908 268.428 214.456 267.603 214.456C267.054 214.456 266.779 214.456 266.504 214.182C266.229 213.908 266.229 213.361 266.229 212.813V204.327C266.229 203.505 265.68 202.958 264.855 202.958H251.665C251.391 205.969 250.841 208.433 249.742 210.623C248.643 212.813 247.818 213.908 246.719 213.908C246.17 213.908 245.895 213.908 245.62 213.635C245.345 213.361 245.345 213.087 245.345 212.54C245.345 212.266 245.62 211.992 245.895 211.445C247.269 209.802 248.093 208.159 248.368 206.243C248.917 204.327 249.192 201.315 249.192 197.482V193.924C249.192 192.555 249.192 191.46 249.192 190.912C249.192 190.365 249.192 189.269 249.192 187.901C249.192 186.806 249.742 186.532 250.566 186.532C251.391 186.532 251.94 187.353 251.94 188.722C251.94 190.912 251.94 192.281 251.94 192.828H261.558V187.353C261.283 185.984 261.833 185.437 262.932 185.437C263.756 185.437 264.306 185.984 264.306 187.079V192.281H272.275C273.099 192.281 273.649 192.828 273.649 193.65Z" fill="#00948B"/>
</svg>
