<svg width="35" height="30" viewBox="0 0 35 30" fill="none" xmlns="http://www.w3.org/2000/svg">
<path fill-rule="evenodd" clip-rule="evenodd" d="M21.2602 0.734263C22.4655 0.249582 23.7574 7.77346e-05 25.062 2.18941e-06C27.0275 -0.0010584 28.9491 0.563749 30.5835 1.62293C32.218 2.68211 33.4919 4.18805 34.244 5.95012C34.9961 7.7122 35.1926 9.65119 34.8085 11.5217C34.4245 13.3921 33.4772 15.11 32.0866 16.4578L18.5785 29.5658C18.2919 29.8438 17.9033 30 17.4981 30C17.0929 30 16.7043 29.8438 16.4178 29.5658L2.90965 16.4578C1.04663 14.6499 0 12.1979 0 9.64126C0 7.08458 1.04663 4.63261 2.90965 2.82476C4.77267 1.01692 7.29947 0.00127773 9.93418 0.00127773C11.2388 0.00127773 12.5306 0.250624 13.7358 0.735078C14.9411 1.21953 16.0362 1.92961 16.9587 2.82476L17.4981 3.3482L18.0375 2.82476C18.9598 1.9293 20.0549 1.21894 21.2602 0.734263Z" fill="#61DED7"/>
</svg>
